<?xml version="1.0" encoding="UTF-8" standalone="no"?>
<svg width="491px" height="443px" viewBox="0 0 491 443" version="1.1" xmlns="http://www.w3.org/2000/svg" xmlns:xlink="http://www.w3.org/1999/xlink">
    <!-- Generator: Sketch 3.6.1 (26313) - http://www.bohemiancoding.com/sketch -->
    <title>shapes</title>
    <desc>Created with Sketch.</desc>
    <defs></defs>
    <g id="Page-1" stroke="none" stroke-width="1" fill="none" fill-rule="evenodd">
        <g id="Artboard-13" transform="translate(-996.000000, -110.000000)" fill="#ADADAE">
            <g id="shapes" transform="translate(996.000000, 110.000000)">
                <path d="M40.3,296.7 L77.6,296.7 C88.3,296.7 97.2,305.1 97.7,315.8 L100.3,364.4 L142.8,305.1 C146.6,299.8 152.7,296.7 159.2,296.7 L449.7,296.7 L449.7,41.2 L40.3,41.2 L40.3,296.7 L40.3,296.7 L40.3,296.7 Z M77.5,442.3 C69.3,439.9 63.5,432.6 63,424 L58.4,337.1 L20.2,337.1 C9.1,337.1 2.84217094e-14,328.1 2.84217094e-14,316.9 L2.84217094e-14,21.1 C2.84217094e-14,10 9,0.9 20.2,0.9 L469.9,0.9 C481,0.9 490.1,9.9 490.1,21.1 L490.1,317 C490.1,328.1 481.1,337.2 469.9,337.2 L169.5,337.2 L99.6,434.8 C95.7,440.1 86.2,444.9 77.5,442.3 L77.5,442.3 Z" id="Shape"></path>
            </g>
        </g>
    </g>
</svg>