<?xml version="1.0" encoding="UTF-8" standalone="no"?>
<svg width="491px" height="444px" viewBox="0 0 491 444" version="1.1" xmlns="http://www.w3.org/2000/svg" xmlns:xlink="http://www.w3.org/1999/xlink">
    <!-- Generator: Sketch 3.6.1 (26313) - http://www.bohemiancoding.com/sketch -->
    <title>up-arrow</title>
    <desc>Created with Sketch.</desc>
    <defs></defs>
    <g id="Page-1" stroke="none" stroke-width="1" fill="none" fill-rule="evenodd">
        <g id="Artboard-13" transform="translate(-170.000000, -110.000000)" fill="#ADADAE">
            <g id="up-arrow" transform="translate(170.000000, 110.000000)">
                <g id="Capa_1">
                    <g id="Group">
                        <path d="M466.583935,0.899052966 L364.524869,0.899052966 C351.265288,0.899052966 340.41654,10.4939682 340.41654,22.2210869 C340.41654,33.9482055 351.265288,43.5431208 364.524869,43.5431208 L442.072855,43.5431208 L442.072855,295.854273 L48.3044251,295.854273 L48.3044251,43.5431208 L133.888993,43.5431208 C147.148574,43.5431208 157.997323,33.9482055 157.997323,22.2210869 C157.997323,10.4939682 147.148574,0.899052966 133.888993,0.899052966 L23.7947633,0.899052966 C10.5351822,0.899052966 0.0877669236,11.5600699 0.0877669236,23.2871886 L0.0877669236,318.952307 C0.0877669236,330.679426 10.5351822,338.497087 23.7947633,338.497087 L466.583935,338.497087 C479.843516,338.497087 490.290931,330.679426 490.290931,318.952307 L490.290931,23.2871886 C490.290931,11.5600699 479.843516,0.899052966 466.583935,0.899052966 L466.583935,0.899052966 Z" id="Shape" transform="translate(245.189349, 169.698070) rotate(180.000000) translate(-245.189349, -169.698070) "></path>
                        <path d="M238.184461,443.315186 C251.444042,443.315186 262.292791,433.720271 262.292791,421.993153 L262.292791,133.079593 L365.154522,214.103322 C369.574855,217.656576 375.601937,219.433831 381.226269,219.433831 C388.057435,219.433831 394.48585,216.946678 399.307516,212.326068 C408.146764,203.442305 407.344098,189.937932 397.298015,182.120271 L258.675123,73.0229492 C249.835875,66.2713898 236.977627,65.9151864 227.735628,72.3117966 C223.315295,74.0890508 219.699046,77.2873559 217.288213,80.8406102 L97.1478999,182.831424 C87.5045683,191.005288 87.1032355,204.508407 96.3438162,213.03722 C105.585815,221.566034 120.853478,221.920983 130.49681,213.748373 L214.071878,142.674508 L214.071878,421.993153 C214.076132,433.720271 224.92488,443.315186 238.184461,443.315186 L238.184461,443.315186 Z" id="Shape"></path>
                    </g>
                </g>
            </g>
        </g>
    </g>
</svg>